<svg width="20" height="13" viewBox="0 0 20 13" fill="none" xmlns="http://www.w3.org/2000/svg">
    <path d="M11.5188 12.2284C11.331 12.4474 11.0981 12.6232 10.836 12.7438C10.5739 12.8643 10.2888 12.9268 10.0003 12.9268C9.71176 12.9268 9.42668 12.8643 9.16457 12.7438C8.90245 12.6232 8.66953 12.4474 8.48177 12.2284L0.829769 3.30036C0.581366 3.00994 0.421366 2.65444 0.368711 2.27592C0.316057 1.89741 0.37295 1.51173 0.532656 1.16454C0.692362 0.817356 0.948196 0.523193 1.26987 0.316873C1.59155 0.110552 1.96561 0.000712395 2.34777 0.000355721L17.6518 0.000355721C18.0339 0.000712395 18.408 0.110552 18.7297 0.316873C19.0513 0.523193 19.3072 0.817356 19.4669 1.16454C19.6266 1.51173 19.6835 1.89741 19.6308 2.27592C19.5782 2.65444 19.4182 3.00994 19.1698 3.30036L11.5188 12.2284Z" fill="#DEDCDC"/>
</svg>
