<svg width="22" height="30" viewBox="0 0 22 30" fill="none" xmlns="http://www.w3.org/2000/svg">
<path d="M20 1H2C1.44772 1 1 1.44772 1 2V28C1 28.5523 1.44772 29 2 29H20C20.5523 29 21 28.5523 21 28V2C21 1.44772 20.5523 1 20 1Z" fill="white" stroke="#494848" stroke-linecap="round" stroke-linejoin="round"/>
<path d="M17.392 3.625H4.60901C4.05672 3.625 3.60901 4.07272 3.60901 4.625V22.75C3.60901 23.3023 4.05672 23.75 4.60901 23.75H17.392C17.9443 23.75 18.392 23.3023 18.392 22.75V4.625C18.392 4.07272 17.9443 3.625 17.392 3.625Z" stroke="#494848" stroke-linecap="round" stroke-linejoin="round"/>
<path d="M11.001 27.896C11.8145 27.896 12.474 27.2289 12.474 26.406C12.474 25.5831 11.8145 24.916 11.001 24.916C10.1874 24.916 9.52795 25.5831 9.52795 26.406C9.52795 27.2289 10.1874 27.896 11.001 27.896Z" fill="#494848"/>
</svg>
