<svg width="25" height="25" viewBox="0 0 25 25" fill="none" xmlns="http://www.w3.org/2000/svg">
<path d="M17 0H8C3.58172 0 0 3.58172 0 8V17C0 21.4183 3.58172 25 8 25H17C21.4183 25 25 21.4183 25 17V8C25 3.58172 21.4183 0 17 0Z" fill="white"/>
<path d="M17 0.5H8C3.85786 0.5 0.5 3.85786 0.5 8V17C0.5 21.1421 3.85786 24.5 8 24.5H17C21.1421 24.5 24.5 21.1421 24.5 17V8C24.5 3.85786 21.1421 0.5 17 0.5Z" stroke="#707070"/>
<path d="M8.21499 13.144L6.89199 9.51597L5.57299 13.144H8.21499ZM9.24499 16L8.48799 13.9H5.29499L4.53799 16H3.61499L6.33999 8.64197H7.49999L10.217 16H9.24499ZM11.994 15.683V18.036H11.135V10.482H11.994V11.092C12.4969 10.6318 13.1442 10.361 13.825 10.326C14.1261 10.3163 14.425 10.3804 14.6957 10.5127C14.9664 10.645 15.2006 10.8414 15.378 11.085C15.7936 11.6987 15.996 12.432 15.954 13.172C15.9876 13.9401 15.7386 14.694 15.254 15.291C15.0466 15.5488 14.7834 15.7561 14.4843 15.8975C14.1851 16.0388 13.8578 16.1104 13.527 16.107C12.9876 16.103 12.4588 15.9567 11.994 15.683ZM11.994 11.791V15.014C12.4187 15.2171 12.8814 15.3286 13.352 15.341C13.5911 15.3526 13.8296 15.3081 14.0484 15.2111C14.2672 15.114 14.4602 14.967 14.612 14.782C14.9412 14.3228 15.1013 13.7638 15.065 13.2C15.065 11.8233 14.5687 11.135 13.576 11.135C12.9876 11.1594 12.427 11.3919 11.994 11.791ZM18.078 15.683V18.036H17.219V10.482H18.078V11.092C18.5808 10.6315 19.2281 10.3603 19.909 10.325C20.2101 10.3153 20.509 10.3794 20.7797 10.5117C21.0504 10.644 21.2846 10.8404 21.462 11.084C21.8776 11.6977 22.08 12.431 22.038 13.171C22.0716 13.9391 21.8226 14.693 21.338 15.29C21.1307 15.5479 20.8676 15.7555 20.5684 15.897C20.2693 16.0385 19.9419 16.1103 19.611 16.107C19.0716 16.103 18.5428 15.9567 18.078 15.683ZM18.078 11.791V15.014C18.5024 15.217 18.9647 15.3284 19.435 15.341C19.6749 15.3534 19.9144 15.3093 20.1341 15.2122C20.3538 15.1151 20.5477 14.9677 20.7 14.782C21.0278 14.3223 21.1865 13.7633 21.149 13.2C21.149 11.8233 20.6527 11.135 19.66 11.135C19.0716 11.1594 18.511 11.3919 18.078 11.791Z" fill="#707070"/>
</svg>
