<svg width="24" height="24" viewBox="0 0 24 24" fill="none" xmlns="http://www.w3.org/2000/svg">
<path d="M6.36096 7.7711C6.66858 7.7711 6.91796 7.53694 6.91796 7.2481C6.91796 6.95925 6.66858 6.7251 6.36096 6.7251C6.05333 6.7251 5.80396 6.95925 5.80396 7.2481C5.80396 7.53694 6.05333 7.7711 6.36096 7.7711Z" fill="#707070" stroke="#9C9B98" stroke-width="1.3"/>
<path d="M9.5249 7.24805H18.1959" stroke="#9C9B98" stroke-width="1.3" stroke-linecap="round" stroke-linejoin="round"/>
<path d="M6.36096 17.275C6.66858 17.275 6.91796 17.0408 6.91796 16.752C6.91796 16.4632 6.66858 16.229 6.36096 16.229C6.05333 16.229 5.80396 16.4632 5.80396 16.752C5.80396 17.0408 6.05333 17.275 6.36096 17.275Z" fill="#707070" stroke="#9C9B98" stroke-width="1.3" stroke-linecap="round" stroke-linejoin="round"/>
<path d="M9.5249 16.752H18.1959" stroke="#9C9B98" stroke-width="1.3" stroke-linecap="round" stroke-linejoin="round"/>
<path d="M6.36096 12.5231C6.66858 12.5231 6.91796 12.2889 6.91796 12.0001C6.91796 11.7112 6.66858 11.4771 6.36096 11.4771C6.05333 11.4771 5.80396 11.7112 5.80396 12.0001C5.80396 12.2889 6.05333 12.5231 6.36096 12.5231Z" fill="#707070" stroke="#9C9B98" stroke-width="1.3"/>
<path d="M9.5249 12H18.1959" stroke="#9C9B98" stroke-width="1.3" stroke-linecap="round" stroke-linejoin="round"/>
<path d="M1 2.376V21.625C1 21.8057 1.0356 21.9845 1.10476 22.1514C1.17392 22.3183 1.2753 22.4699 1.40308 22.5976C1.53087 22.7253 1.68257 22.8266 1.8495 22.8956C2.01644 22.9647 2.19535 23.0001 2.376 23H21.625C21.9897 23 22.3394 22.8551 22.5973 22.5973C22.8551 22.3394 23 21.9897 23 21.625V2.376C23.0001 2.19535 22.9647 2.01644 22.8956 1.8495C22.8266 1.68257 22.7253 1.53087 22.5976 1.40308C22.4699 1.2753 22.3183 1.17392 22.1514 1.10476C21.9845 1.0356 21.8057 1 21.625 1H2.376C2.19526 0.999869 2.01628 1.03537 1.84927 1.10447C1.68227 1.17358 1.53053 1.27493 1.40273 1.40273C1.27493 1.53053 1.17358 1.68227 1.10447 1.84927C1.03537 2.01628 0.999869 2.19526 1 2.376V2.376Z" stroke="#9C9B98" stroke-width="1.3" stroke-linecap="round" stroke-linejoin="round"/>
</svg>
