<?xml version="1.0" encoding="UTF-8" standalone="no"?>
<!DOCTYPE svg PUBLIC "-//W3C//DTD SVG 1.1//EN" "http://www.w3.org/Graphics/SVG/1.1/DTD/svg11.dtd">
<svg width="100%" height="100%" viewBox="0 0 22 22" version="1.1" xmlns="http://www.w3.org/2000/svg" xmlns:xlink="http://www.w3.org/1999/xlink" xml:space="preserve" xmlns:serif="http://www.serif.com/" style="fill-rule:evenodd;clip-rule:evenodd;stroke-linejoin:round;stroke-miterlimit:2;">
    <path d="M0,1.375l0,19.25c0,0.365 0.145,0.714 0.403,0.972c0.258,0.258 0.607,0.403 0.972,0.403l19.25,0c0.365,0 0.714,-0.145 0.972,-0.403c0.258,-0.258 0.403,-0.607 0.403,-0.972l0,-19.25c0,-0.365 -0.145,-0.714 -0.403,-0.972c-0.258,-0.258 -0.607,-0.403 -0.972,-0.403l-19.25,0c-0.365,0 -0.714,0.145 -0.972,0.403c-0.258,0.258 -0.403,0.607 -0.403,0.972Zm5.361,13.215c0.641,0 1.162,0.521 1.162,1.162c-0,0.641 -0.521,1.162 -1.162,1.162c-0.641,-0 -1.162,-0.521 -1.162,-1.162c0,-0.641 0.521,-1.162 1.162,-1.162Zm3.164,1.768c-0.334,-0 -0.606,-0.272 -0.606,-0.606c0,-0.334 0.272,-0.606 0.606,-0.606l8.675,0c0.333,0.002 0.602,0.273 0.602,0.606c-0,0.334 -0.272,0.606 -0.606,0.606l-8.671,-0Zm-3.164,-6.52c0.641,0 1.162,0.521 1.162,1.162c-0,0.641 -0.521,1.162 -1.162,1.162c-0.641,-0 -1.162,-0.521 -1.162,-1.162c0,-0.641 0.521,-1.162 1.162,-1.162Zm3.164,1.768c-0.334,-0 -0.606,-0.272 -0.606,-0.606c0,-0.334 0.272,-0.606 0.606,-0.606l8.675,0c0.333,0.002 0.602,0.273 0.602,0.606c-0,0.334 -0.272,0.606 -0.606,0.606l-8.671,-0Zm-3.164,-6.52c0.641,0 1.162,0.521 1.162,1.162c-0,0.641 -0.521,1.162 -1.162,1.162c-0.641,-0 -1.162,-0.521 -1.162,-1.162c0,-0.641 0.521,-1.162 1.162,-1.162Zm3.164,1.768c-0.334,-0 -0.606,-0.272 -0.606,-0.606c0,-0.334 0.272,-0.606 0.606,-0.606l8.675,0c0.333,0.002 0.602,0.273 0.602,0.606c-0,0.334 -0.272,0.606 -0.606,0.606l-8.671,-0Z" style="fill:#38b140;fill-rule:nonzero;"/>
</svg>
