<svg width="31" height="31" viewBox="0 0 31 31" fill="none" xmlns="http://www.w3.org/2000/svg">
<path d="M15.5 30C23.5081 30 30 23.5081 30 15.5C30 7.49187 23.5081 1 15.5 1C7.49187 1 1 7.49187 1 15.5C1 23.5081 7.49187 30 15.5 30Z" fill="white" stroke="#494848" stroke-miterlimit="10"/>
<path d="M11.176 12.2678C11.1908 11.6326 11.3864 11.0147 11.74 10.4868C12.15 9.85404 12.7176 9.33883 13.387 8.9918C14.1652 8.58335 15.0344 8.37962 15.913 8.3998C16.7304 8.3848 17.5404 8.55577 18.282 8.8998C18.9244 9.19405 19.4732 9.6598 19.868 10.2458C20.2333 10.792 20.4273 11.4347 20.425 12.0918C20.4358 12.5709 20.3261 13.0451 20.106 13.4708C19.906 13.8478 19.6501 14.1924 19.347 14.4928C19.0537 14.7795 18.5277 15.2621 17.769 15.9408C17.5933 16.0982 17.4264 16.2651 17.269 16.4408C17.1593 16.5623 17.0646 16.6966 16.987 16.8408C16.9274 16.9557 16.8794 17.0763 16.844 17.2008C16.81 17.3215 16.759 17.5328 16.691 17.8348C16.6824 17.9703 16.647 18.1028 16.587 18.2247C16.5269 18.3465 16.4434 18.4552 16.3412 18.5447C16.2389 18.6341 16.12 18.7024 15.9913 18.7457C15.8625 18.7889 15.7265 18.8063 15.591 18.7968C15.4419 18.8006 15.2935 18.7747 15.1544 18.7206C15.0154 18.6665 14.8884 18.5854 14.781 18.4818C14.6649 18.3571 14.5759 18.2098 14.5194 18.0491C14.463 17.8883 14.4404 17.7177 14.453 17.5478C14.4241 16.6803 14.7402 15.8367 15.332 15.2018C15.6721 14.8432 16.0303 14.5021 16.405 14.1798C16.7997 13.8338 17.085 13.5731 17.261 13.3978C17.4357 13.2234 17.5851 13.0255 17.705 12.8098C17.8243 12.5959 17.8863 12.3547 17.885 12.1098C17.8887 11.8743 17.8415 11.6407 17.7466 11.4252C17.6516 11.2096 17.5113 11.0171 17.335 10.8608C16.9457 10.5133 16.4365 10.3308 15.915 10.3518C15.643 10.3285 15.3691 10.3622 15.1108 10.4507C14.8526 10.5392 14.6156 10.6806 14.415 10.8658C14.0396 11.3064 13.7622 11.8218 13.601 12.3778C13.391 13.0751 12.993 13.4235 12.407 13.4228C12.244 13.4262 12.082 13.3955 11.9315 13.3326C11.781 13.2698 11.6453 13.1762 11.533 13.0578C11.4239 12.9566 11.3361 12.8345 11.2748 12.6989C11.2135 12.5632 11.1799 12.4166 11.176 12.2678ZM15.691 23.2168C15.3287 23.2219 14.9775 23.0918 14.706 22.8518C14.564 22.7237 14.4525 22.5654 14.3796 22.3885C14.3068 22.2117 14.2744 22.0208 14.285 21.8298C14.281 21.647 14.3151 21.4653 14.3852 21.2964C14.4552 21.1275 14.5597 20.9751 14.692 20.8488C14.8232 20.7183 14.9794 20.6156 15.1513 20.5469C15.3231 20.4782 15.507 20.4448 15.692 20.4488C15.8739 20.446 16.0545 20.4797 16.2231 20.548C16.3917 20.6163 16.5448 20.7178 16.6734 20.8464C16.8021 20.975 16.9035 21.1282 16.9718 21.2967C17.0401 21.4653 17.0739 21.6459 17.071 21.8278C17.0806 22.0176 17.0481 22.2071 16.9761 22.3829C16.904 22.5586 16.794 22.7164 16.654 22.8448C16.3921 23.0869 16.0477 23.22 15.691 23.2168Z" fill="white" stroke="#494848"/>
</svg>
