<svg width="20" height="20" viewBox="0 0 20 20" fill="none" xmlns="http://www.w3.org/2000/svg">
<path d="M10 20C8.02219 20 6.08879 19.4135 4.4443 18.3147C2.79981 17.2159 1.51809 15.6541 0.761209 13.8268C0.00433284 11.9996 -0.193701 9.98891 0.192152 8.0491C0.578004 6.10929 1.53041 4.32746 2.92894 2.92894C4.32746 1.53041 6.10929 0.578004 8.0491 0.192152C9.98891 -0.193701 11.9996 0.00433284 13.8268 0.761209C15.6541 1.51809 17.2159 2.79981 18.3147 4.4443C19.4135 6.08879 20 8.02219 20 10C19.9968 12.6512 18.9422 15.1929 17.0676 17.0676C15.1929 18.9422 12.6512 19.9968 10 20ZM10 1.275C8.27436 1.275 6.58747 1.78672 5.15265 2.74543C3.71784 3.70415 2.59953 5.06681 1.93916 6.66109C1.27878 8.25538 1.106 10.0097 1.44265 11.7022C1.77931 13.3947 2.61028 14.9493 3.8305 16.1695C5.05071 17.3897 6.60536 18.2207 8.29784 18.5574C9.99033 18.894 11.7446 18.7212 13.3389 18.0609C14.9332 17.4005 16.2959 16.2822 17.2546 14.8474C18.2133 13.4125 18.725 11.7256 18.725 10C18.7224 7.6868 17.8023 5.4691 16.1666 3.83342C14.5309 2.19774 12.3132 1.27765 10 1.275Z" fill="#494848"/>
<path d="M6.66504 7.738C6.67597 7.28003 6.81714 6.83464 7.07204 6.454C7.36781 5.99831 7.77682 5.6272 8.25904 5.377C8.82036 5.08253 9.44733 4.93559 10.081 4.95C10.6697 4.93814 11.2534 5.06021 11.788 5.307C12.2514 5.5193 12.6473 5.85528 12.932 6.278C13.1953 6.67289 13.3346 7.13742 13.332 7.612C13.34 7.95738 13.2609 8.29921 13.102 8.606C12.9579 8.87786 12.7735 9.12634 12.555 9.343C12.3437 9.54967 11.9647 9.89767 11.418 10.387C11.2901 10.5015 11.1686 10.623 11.054 10.751C10.9763 10.8384 10.9092 10.9348 10.854 11.038C10.812 11.1211 10.7785 11.2082 10.754 11.298C10.7294 11.3847 10.6927 11.537 10.644 11.755C10.6379 11.8528 10.6126 11.9484 10.5693 12.0363C10.5261 12.1242 10.4659 12.2027 10.3921 12.2672C10.3184 12.3317 10.2326 12.381 10.1398 12.4122C10.0469 12.4434 9.94877 12.4559 9.85104 12.449C9.74351 12.4517 9.63652 12.4331 9.53626 12.3941C9.43601 12.3551 9.3445 12.2966 9.26704 12.222C9.18322 12.1321 9.1189 12.0258 9.07811 11.9098C9.03733 11.7938 9.02096 11.6706 9.03004 11.548C9.00948 10.9227 9.23744 10.3147 9.66404 9.857C9.90938 9.59837 10.1677 9.35239 10.438 9.12C10.7227 8.87134 10.9284 8.68334 11.055 8.556C11.181 8.43028 11.2887 8.28757 11.375 8.132C11.4617 7.97717 11.5065 7.80243 11.505 7.625C11.5072 7.45502 11.4726 7.28658 11.4035 7.13123C11.3345 6.97589 11.2327 6.83731 11.105 6.725C10.824 6.47514 10.4568 6.34427 10.081 6.36C9.88504 6.3432 9.68768 6.36743 9.50156 6.43113C9.31544 6.49484 9.14464 6.59662 9.00004 6.73C8.72958 7.0478 8.52952 7.41929 8.41304 7.82C8.26237 8.32267 7.97537 8.574 7.55204 8.574C7.43443 8.57633 7.31763 8.55405 7.20914 8.50859C7.10065 8.46312 7.00285 8.39548 6.92204 8.31C6.84311 8.2367 6.7797 8.14831 6.73555 8.05006C6.69141 7.9518 6.66743 7.84569 6.66504 7.738ZM9.92004 15.049C9.65841 15.0528 9.40482 14.9586 9.20904 14.785C9.10729 14.6923 9.02755 14.578 8.97564 14.4505C8.92374 14.3229 8.90098 14.1854 8.90904 14.048C8.90612 13.9163 8.93067 13.7854 8.98111 13.6637C9.03156 13.5419 9.1068 13.432 9.20204 13.341C9.29669 13.2471 9.40935 13.1732 9.53325 13.1239C9.65714 13.0746 9.78973 13.0508 9.92304 13.054C10.0541 13.0523 10.1841 13.0768 10.3055 13.1261C10.4269 13.1754 10.5371 13.2486 10.6298 13.3412C10.7225 13.4339 10.7956 13.5442 10.8449 13.6656C10.8943 13.7869 10.9188 13.917 10.917 14.048C10.9242 14.1849 10.9009 14.3217 10.8491 14.4485C10.7972 14.5754 10.718 14.6893 10.617 14.782C10.4272 14.9565 10.1779 15.052 9.92004 15.049Z" fill="#494848"/>
</svg>
