<svg width="24" height="24" viewBox="0 0 24 24" fill="none" xmlns="http://www.w3.org/2000/svg">
<path d="M1 1V22.021C1 22.2806 1.10314 22.5297 1.28674 22.7133C1.47034 22.8969 1.71935 23 1.979 23H23" stroke="#14B53D" stroke-width="1.3" stroke-linecap="round" stroke-linejoin="round"/>
<path d="M5.82006 16.028C6.35191 16.028 6.78306 15.5744 6.78306 15.015C6.78306 14.4555 6.35191 14.002 5.82006 14.002C5.28821 14.002 4.85706 14.4555 4.85706 15.015C4.85706 15.5744 5.28821 16.028 5.82006 16.028Z" fill="#14B53D" stroke="#14B53D" stroke-width="1.3"/>
<path d="M10.739 10.7531C11.2709 10.7531 11.702 10.2995 11.702 9.74005C11.702 9.18059 11.2709 8.72705 10.739 8.72705C10.2072 8.72705 9.776 9.18059 9.776 9.74005C9.776 10.2995 10.2072 10.7531 10.739 10.7531Z" fill="#14B53D" stroke="#14B53D" stroke-width="1.3"/>
<path d="M15.734 14.84C16.2658 14.84 16.697 14.3864 16.697 13.827C16.697 13.2675 16.2658 12.814 15.734 12.814C15.2021 12.814 14.771 13.2675 14.771 13.827C14.771 14.3864 15.2021 14.84 15.734 14.84Z" fill="#14B53D" stroke="#14B53D" stroke-width="1.3"/>
<path d="M21.586 8.37512C22.1179 8.37512 22.549 7.92159 22.549 7.36212C22.549 6.80266 22.1179 6.34912 21.586 6.34912C21.0542 6.34912 20.623 6.80266 20.623 7.36212C20.623 7.92159 21.0542 8.37512 21.586 8.37512Z" fill="#14B53D" stroke="#14B53D" stroke-width="1.3"/>
<path d="M6.4491 14.249L10.0401 10.436" stroke="#14B53D" stroke-width="1.3"/>
<path d="M11.5071 10.3501L14.7711 13.0951" stroke="#14B53D" stroke-width="1.3"/>
<path d="M16.243 13.094L21.088 8.229" stroke="#14B53D" stroke-width="1.3"/>
</svg>
