<svg width="24" height="24" viewBox="0 0 24 24" fill="none" xmlns="http://www.w3.org/2000/svg">
<path d="M1 1V22.021C1 22.2806 1.10314 22.5297 1.28674 22.7133C1.47034 22.8969 1.71935 23 1.979 23H23" stroke="#9C9B98" stroke-width="1.3" stroke-linecap="round" stroke-linejoin="round"/>
<path d="M5.81993 16.028C6.35178 16.028 6.78293 15.5745 6.78293 15.015C6.78293 14.4555 6.35178 14.002 5.81993 14.002C5.28808 14.002 4.85693 14.4555 4.85693 15.015C4.85693 15.5745 5.28808 16.028 5.81993 16.028Z" stroke="#9C9B98" stroke-width="1.3"/>
<path d="M10.7389 10.753C11.2707 10.753 11.7019 10.2995 11.7019 9.73999C11.7019 9.18053 11.2707 8.72699 10.7389 8.72699C10.207 8.72699 9.77588 9.18053 9.77588 9.73999C9.77588 10.2995 10.207 10.753 10.7389 10.753Z" stroke="#9C9B98" stroke-width="1.3"/>
<path d="M15.734 14.84C16.2658 14.84 16.697 14.3865 16.697 13.827C16.697 13.2676 16.2658 12.814 15.734 12.814C15.2021 12.814 14.771 13.2676 14.771 13.827C14.771 14.3865 15.2021 14.84 15.734 14.84Z" stroke="#9C9B98" stroke-width="1.3"/>
<path d="M21.586 8.375C22.1179 8.375 22.549 7.92146 22.549 7.362C22.549 6.80253 22.1179 6.349 21.586 6.349C21.0542 6.349 20.623 6.80253 20.623 7.362C20.623 7.92146 21.0542 8.375 21.586 8.375Z" stroke="#9C9B98" stroke-width="1.3"/>
<path d="M6.44897 14.249L10.04 10.436" stroke="#9C9B98" stroke-width="1.3"/>
<path d="M11.5068 10.35L14.7708 13.095" stroke="#9C9B98" stroke-width="1.3"/>
<path d="M16.2429 13.094L21.0879 8.229" stroke="#9C9B98" stroke-width="1.3"/>
</svg>
