<svg width="25" height="25" viewBox="0 0 25 25" fill="none" xmlns="http://www.w3.org/2000/svg">
<path d="M11.459 1.31897L1.70005 7.90797C1.48428 8.05393 1.30762 8.25061 1.18557 8.48075C1.06353 8.71089 0.999823 8.96747 1.00005 9.22797V22.668C0.998596 22.8414 1.03133 23.0135 1.09638 23.1743C1.16143 23.3352 1.25752 23.4816 1.37917 23.6053C1.50081 23.729 1.64563 23.8275 1.80535 23.8952C1.96507 23.9629 2.13657 23.9985 2.31005 24H8.12405C8.28032 23.9987 8.43481 23.9666 8.57868 23.9056C8.72256 23.8446 8.85301 23.7558 8.96259 23.6444C9.07216 23.5329 9.15871 23.401 9.2173 23.2561C9.27589 23.1112 9.30537 22.9562 9.30405 22.8V18.844C9.30299 18.7169 9.32699 18.5908 9.37466 18.4729C9.42233 18.3551 9.49276 18.2478 9.5819 18.1571C9.67105 18.0665 9.77717 17.9943 9.89421 17.9447C10.0113 17.8951 10.1369 17.869 10.264 17.868H14.741C14.8681 17.869 14.9937 17.8951 15.1107 17.9447C15.2277 17.9944 15.3338 18.0666 15.4228 18.1572C15.5119 18.2478 15.5822 18.3552 15.6298 18.473C15.6774 18.5908 15.7012 18.7169 15.7 18.844V22.8C15.6987 22.9562 15.7282 23.1112 15.7868 23.2561C15.8454 23.401 15.9319 23.5329 16.0415 23.6444C16.1511 23.7558 16.2815 23.8446 16.4254 23.9056C16.5693 23.9666 16.7238 23.9987 16.88 24H22.69C22.8635 23.9985 23.035 23.9629 23.1947 23.8952C23.3545 23.8275 23.4993 23.729 23.6209 23.6053C23.7426 23.4816 23.8387 23.3352 23.9037 23.1743C23.9688 23.0135 24.0015 22.8414 24 22.668V9.22697C24.0003 8.96647 23.9366 8.70989 23.8145 8.47975C23.6925 8.24961 23.5158 8.05293 23.3 7.90697L13.546 1.31897C13.2379 1.11077 12.8745 0.999512 12.5025 0.999512C12.1306 0.999512 11.7672 1.11077 11.459 1.31897V1.31897Z" stroke="#9C9B98" stroke-width="1.3" stroke-miterlimit="10"/>
</svg>
