<svg width="23" height="23" viewBox="0 0 23 23" fill="none" xmlns="http://www.w3.org/2000/svg">
<path d="M10.459 0.318972L0.700046 6.90797C0.484276 7.05393 0.307619 7.25061 0.185574 7.48075C0.0635284 7.71089 -0.000177002 7.96747 4.61822e-05 8.22797V21.668C-0.00140439 21.8414 0.0313298 22.0135 0.0963795 22.1743C0.161429 22.3352 0.25752 22.4816 0.379166 22.6053C0.500812 22.729 0.64563 22.8275 0.805351 22.8952C0.965073 22.9629 1.13657 22.9985 1.31005 23H7.12405C7.43896 22.9963 7.73957 22.8679 7.96 22.643C8.18044 22.418 8.30271 22.1149 8.30005 21.8V17.844C8.29791 17.5874 8.39773 17.3405 8.57755 17.1575C8.75737 16.9745 9.00249 16.8703 9.25905 16.868H13.736C13.8631 16.869 13.9887 16.8951 14.1057 16.9447C14.2227 16.9944 14.3288 17.0666 14.4178 17.1572C14.5069 17.2478 14.5772 17.3552 14.6248 17.473C14.6724 17.5908 14.6962 17.7169 14.695 17.844V21.8C14.6937 21.9562 14.7232 22.1112 14.7818 22.2561C14.8404 22.401 14.9269 22.5329 15.0365 22.6444C15.1461 22.7558 15.2765 22.8446 15.4204 22.9056C15.5643 22.9666 15.7188 22.9987 15.875 23H21.69C21.8635 22.9985 22.035 22.9629 22.1947 22.8952C22.3545 22.8275 22.4993 22.729 22.6209 22.6053C22.7426 22.4816 22.8387 22.3352 22.9037 22.1743C22.9688 22.0135 23.0015 21.8414 23 21.668V8.22697C23.0003 7.96647 22.9366 7.70989 22.8145 7.47975C22.6925 7.24961 22.5158 7.05293 22.3 6.90697L12.546 0.318972C12.2379 0.110768 11.8745 -0.000488281 11.5025 -0.000488281C11.1306 -0.000488281 10.7672 0.110768 10.459 0.318972Z" fill="#38B140"/>
</svg>
