<svg width="180" height="27" viewBox="0 0 180 27" fill="none" xmlns="http://www.w3.org/2000/svg">
<path d="M16.116 25.8971L6.694 14.6971V25.8971H0V1.10608H6.694V12.0541L15.331 1.10608H22.521L12.893 12.9211L24.174 25.8971H16.116Z" fill="#17B53D"/>
<path d="M54.0909 1.10608H65.0829C70.7029 1.10608 72.8519 4.04008 72.8519 7.59408C72.807 8.55813 72.5415 9.49902 72.0758 10.3444C71.6102 11.1897 70.9568 11.9169 70.1659 12.4701C71.3644 12.9899 72.3835 13.8508 73.0962 14.9456C73.8089 16.0404 74.1837 17.3208 74.1739 18.6271C74.1739 22.6361 71.7359 25.9001 65.4959 25.9001H54.0909V1.10608ZM63.4709 10.7761C65.4539 10.7761 66.4879 9.82608 66.4879 8.09008C66.4879 6.31308 65.4549 5.36308 63.4709 5.36308H60.7849V10.7761H63.4709ZM63.8019 21.6441C66.4019 21.6441 67.6859 20.5281 67.6859 18.3381C67.6859 16.1481 66.4049 15.0321 63.8019 15.0321H60.7859V21.6441H63.8019Z" fill="#17B53D"/>
<path d="M78.512 1.10608H85.206V20.8551H95.745V25.8971H78.512V1.10608Z" fill="#17B53D"/>
<path d="M98.099 13.5C98.099 5.90002 104.256 0.400024 111.859 0.400024C119.421 0.400024 125.537 5.90002 125.537 13.5C125.537 21.1 119.421 26.6 111.859 26.6C104.256 26.6 98.099 21.1 98.099 13.5ZM118.43 13.5C118.43 8.74802 115.992 5.64802 111.86 5.64802C107.686 5.64802 105.207 8.74802 105.207 13.5C105.207 18.252 107.687 21.351 111.86 21.351C115.992 21.351 118.43 18.252 118.43 13.5Z" fill="#17B53D"/>
<path d="M128.962 13.499C128.962 5.482 135.162 0.565003 142.31 0.565003C145.403 0.466845 148.45 1.33319 151.029 3.044V8.744C148.921 6.90603 146.226 5.88056 143.429 5.852C139.255 5.852 136.073 8.538 136.073 13.497C136.073 18.414 139.255 21.142 143.429 21.142C146.226 21.1134 148.921 20.088 151.029 18.25V23.95C148.45 25.6608 145.403 26.5272 142.31 26.429C135.162 26.433 128.962 21.516 128.962 13.499Z" fill="#17B53D"/>
<path d="M171.942 25.8971L162.52 14.6971V25.8971H155.826V1.10608H162.52V12.0541L171.152 1.10608H178.342L168.714 12.9241L179.995 25.9001L171.942 25.8971Z" fill="#17B53D"/>
<path d="M48.226 6.31797L37.295 0.797974C37.295 0.797974 26.446 6.35497 26.364 6.31797C26.1254 8.84603 26.2528 11.3953 26.742 13.887H47.848C48.3372 11.3953 48.4645 8.84603 48.226 6.31797Z" fill="#E9F9EF"/>
<path fill-rule="evenodd" clip-rule="evenodd" d="M37.2949 26.201C44.2639 23.832 46.8999 18.453 47.8479 13.887H26.7419C27.6869 18.449 30.3259 23.832 37.2949 26.201Z" fill="#92E1B0"/>
<path d="M37.306 4.90097L44.683 8.62597C44.7252 10.6195 44.469 12.6082 43.923 14.526C43.4888 16.2414 42.665 17.8337 41.5154 19.179C40.3659 20.5243 38.9217 21.5865 37.295 22.283C35.6685 21.5863 34.2246 20.524 33.0752 19.1787C31.9259 17.8334 31.1022 16.2413 30.668 14.526C30.1252 12.6195 29.8691 10.6428 29.908 8.66097C30.815 8.20597 36.288 5.42297 37.308 4.90197M37.297 0.801974C37.297 0.801974 26.521 6.32197 26.367 6.32197C26.449 6.35897 24.067 21.707 37.298 26.205C50.529 21.705 48.147 6.35897 48.229 6.32197L37.295 0.797974L37.297 0.801974Z" fill="#17B53D"/>
</svg>
