<svg width="28" height="20" viewBox="0 0 28 20" fill="none" xmlns="http://www.w3.org/2000/svg">
<path d="M1.666 1.00001H26.334C26.4211 0.999612 26.5074 1.01637 26.5879 1.04932C26.6685 1.08228 26.7418 1.13078 26.8037 1.19207C26.8655 1.25336 26.9147 1.32623 26.9484 1.40652C26.9821 1.4868 26.9996 1.57294 27 1.66001V18.74C26.9996 18.8271 26.9821 18.9132 26.9484 18.9935C26.9147 19.0738 26.8655 19.1467 26.8037 19.2079C26.7418 19.2692 26.6685 19.3177 26.5879 19.3507C26.5074 19.3836 26.4211 19.4004 26.334 19.4H1.666C1.57893 19.4004 1.49264 19.3836 1.41205 19.3507C1.33146 19.3177 1.25815 19.2692 1.19631 19.2079C1.13446 19.1467 1.0853 19.0738 1.05161 18.9935C1.01793 18.9132 1.00039 18.8271 1 18.74V1.66001C1.00039 1.57294 1.01793 1.4868 1.05161 1.40652C1.0853 1.32623 1.13446 1.25336 1.19631 1.19207C1.25815 1.13078 1.33146 1.08228 1.41205 1.04932C1.49264 1.01637 1.57893 0.999612 1.666 1.00001Z" fill="white" stroke="#494848" stroke-width="1.122" stroke-linecap="round" stroke-linejoin="round"/>
<path d="M13.303 11.916L1.86303 1.46301C1.82812 1.42921 1.80405 1.3858 1.79388 1.33829C1.78371 1.29078 1.78789 1.24132 1.8059 1.19619C1.82391 1.15107 1.85493 1.11231 1.89501 1.08486C1.9351 1.0574 1.98244 1.04249 2.03103 1.04201H26.272C26.3039 1.04156 26.3351 1.05081 26.3616 1.06853C26.3881 1.08626 26.4085 1.11161 26.4202 1.14124C26.432 1.17086 26.4344 1.20335 26.4272 1.23439C26.42 1.26543 26.4036 1.29354 26.38 1.31501L14.771 11.916C14.5703 12.0988 14.3085 12.2002 14.037 12.2002C13.7655 12.2002 13.5038 12.0988 13.303 11.916Z" fill="white" stroke="#494848" stroke-width="1.143" stroke-linecap="round" stroke-linejoin="round"/>
</svg>
