<svg width="39" height="15" viewBox="0 0 39 15" fill="none" xmlns="http://www.w3.org/2000/svg">
<path fill-rule="evenodd" clip-rule="evenodd" d="M7.5 15C11.6421 15 15 11.6421 15 7.5C15 3.35786 11.6421 0 7.5 0C3.35786 0 0 3.35786 0 7.5C0 11.6421 3.35786 15 7.5 15ZM7.5 11.5C9.70914 11.5 11.5 9.70914 11.5 7.5C11.5 5.29086 9.70914 3.5 7.5 3.5C5.29086 3.5 3.5 5.29086 3.5 7.5C3.5 9.70914 5.29086 11.5 7.5 11.5ZM17 1H20.5H27V4.5H20.5V6H24.5V9.5H20.5V15H17V9.5V6V4.5V1ZM32.5 1H29V4.5V6V9.5V15H32.5V9.5H36.5V6H32.5V4.5H39V1H32.5Z" fill="white"/>
</svg>
