<svg width="62" height="53" viewBox="0 0 62 53" fill="none" xmlns="http://www.w3.org/2000/svg">
<rect x="1" y="1" width="60" height="51" rx="5" fill="#A8A1A1" stroke="#A19A9A" stroke-width="2"/>
<path fill-rule="evenodd" clip-rule="evenodd" d="M18.5 35C22.6421 35 26 31.6421 26 27.5C26 23.3579 22.6421 20 18.5 20C14.3579 20 11 23.3579 11 27.5C11 31.6421 14.3579 35 18.5 35ZM18.5 31.5C20.7091 31.5 22.5 29.7091 22.5 27.5C22.5 25.2909 20.7091 23.5 18.5 23.5C16.2909 23.5 14.5 25.2909 14.5 27.5C14.5 29.7091 16.2909 31.5 18.5 31.5ZM28 21H31.5H38V24.5H31.5V26H35.5V29.5H31.5V35H28V29.5V26V24.5V21ZM43.5 21H40V24.5V26V29.5V35H43.5V29.5H47.5V26H43.5V24.5H50V21H43.5Z" fill="#8F8787"/>
</svg>
