<svg width="31" height="15" viewBox="0 0 31 15" fill="none" xmlns="http://www.w3.org/2000/svg">
<path fill-rule="evenodd" clip-rule="evenodd" d="M21.499 0H17.999V14H21.499V6.00582L26.073 13.9991L26.08 13.9951V14H27.5H30.08H31V3.05176e-05H27.5V9.44582L22.1 0.00900269V3.05176e-05H21.499V0ZM15 7.50003C15 11.6422 11.6421 15 7.5 15C3.35786 15 0 11.6422 0 7.50003C0 3.35789 3.35786 3.05176e-05 7.5 3.05176e-05C11.6421 3.05176e-05 15 3.35789 15 7.50003ZM11.5 7.50003C11.5 9.70917 9.70914 11.5 7.5 11.5C5.29086 11.5 3.5 9.70917 3.5 7.50003C3.5 5.29089 5.29086 3.50003 7.5 3.50003C9.70914 3.50003 11.5 5.29089 11.5 7.50003Z" fill="white"/>
</svg>
