<svg width="62" height="53" viewBox="0 0 62 53" fill="none" xmlns="http://www.w3.org/2000/svg">
<rect x="1" y="1" width="60" height="51" rx="5" fill="#A8A1A1" stroke="#A19A9A" stroke-width="2"/>
<path fill-rule="evenodd" clip-rule="evenodd" d="M36.499 19.5H32.999V33.5H36.499V25.5058L41.073 33.4991L41.08 33.4951V33.5H42.5H45.08H46V19.5H42.5V28.9458L37.1 19.509V19.5H36.499V19.5ZM30 27C30 31.1422 26.6421 34.5 22.5 34.5C18.3579 34.5 15 31.1422 15 27C15 22.8579 18.3579 19.5 22.5 19.5C26.6421 19.5 30 22.8579 30 27ZM26.5 27C26.5 29.2092 24.7091 31 22.5 31C20.2909 31 18.5 29.2092 18.5 27C18.5 24.7909 20.2909 23 22.5 23C24.7091 23 26.5 24.7909 26.5 27Z" fill="#8F8787"/>
</svg>
