<svg width="24" height="24" viewBox="0 0 24 24" fill="none" xmlns="http://www.w3.org/2000/svg">
<path d="M2.40002 13.776C3.38088 13.776 4.17602 12.9809 4.17602 12C4.17602 11.0191 3.38088 10.224 2.40002 10.224C1.41917 10.224 0.624023 11.0191 0.624023 12C0.624023 12.9809 1.41917 13.776 2.40002 13.776Z" stroke="#9C9B98" stroke-width="1.219"/>
<path d="M12.0001 13.776C12.981 13.776 13.7761 12.9809 13.7761 12C13.7761 11.0191 12.981 10.224 12.0001 10.224C11.0193 10.224 10.2241 11.0191 10.2241 12C10.2241 12.9809 11.0193 13.776 12.0001 13.776Z" stroke="#9C9B98" stroke-width="1.219"/>
<path d="M21.6 13.776C22.5808 13.776 23.376 12.9809 23.376 12C23.376 11.0191 22.5808 10.224 21.6 10.224C20.6191 10.224 19.824 11.0191 19.824 12C19.824 12.9809 20.6191 13.776 21.6 13.776Z" stroke="#9C9B98" stroke-width="1.219"/>
</svg>
