<svg width="24" height="24" viewBox="0 0 24 24" fill="none" xmlns="http://www.w3.org/2000/svg">
<path d="M2.4 14.3996C3.72548 14.3996 4.8 13.3251 4.8 11.9996C4.8 10.6741 3.72548 9.59961 2.4 9.59961C1.07452 9.59961 0 10.6741 0 11.9996C0 13.3251 1.07452 14.3996 2.4 14.3996Z" fill="#14B53D"/>
<path d="M12 14.3996C13.3255 14.3996 14.4 13.3251 14.4 11.9996C14.4 10.6741 13.3255 9.59961 12 9.59961C10.6745 9.59961 9.59998 10.6741 9.59998 11.9996C9.59998 13.3251 10.6745 14.3996 12 14.3996Z" fill="#14B53D"/>
<path d="M21.6 14.3996C22.9254 14.3996 24 13.3251 24 11.9996C24 10.6741 22.9254 9.59961 21.6 9.59961C20.2745 9.59961 19.2 10.6741 19.2 11.9996C19.2 13.3251 20.2745 14.3996 21.6 14.3996Z" fill="#14B53D"/>
</svg>
