<svg width="26" height="26" viewBox="0 0 26 26" fill="none" xmlns="http://www.w3.org/2000/svg">
<path d="M13 0C15.5712 0 18.0846 0.762437 20.2224 2.1909C22.3603 3.61935 24.0265 5.64968 25.0104 8.02512C25.9944 10.4006 26.2518 13.0144 25.7502 15.5362C25.2486 18.0579 24.0105 20.3743 22.1924 22.1924C20.3743 24.0105 18.0579 25.2486 15.5362 25.7502C13.0144 26.2518 10.4006 25.9944 8.02512 25.0104C5.64968 24.0265 3.61935 22.3603 2.1909 20.2224C0.762437 18.0846 0 15.5712 0 13C0 9.55219 1.36964 6.24558 3.80761 3.80761C6.24558 1.36964 9.55219 0 13 0V0Z" fill="#666666"/>
<path d="M9.0459 10.073C9.06059 9.50223 9.23711 8.94736 9.5549 8.47301C9.92456 7.90306 10.4359 7.43891 11.0389 7.12601C11.7402 6.75839 12.5233 6.57499 13.3149 6.59301C14.0508 6.57805 14.7806 6.73055 15.4489 7.03901C16.028 7.30418 16.5228 7.72389 16.8789 8.25201C17.2081 8.74575 17.3822 9.3266 17.3789 9.92001C17.3886 10.3516 17.2895 10.7787 17.0909 11.162C16.9108 11.5021 16.6801 11.813 16.4069 12.084C16.1402 12.342 15.6666 12.7753 14.9859 13.384C14.8263 13.5272 14.6747 13.6791 14.5319 13.839C14.433 13.9478 14.3474 14.068 14.2769 14.197C14.223 14.3007 14.1798 14.4096 14.1479 14.522C14.1172 14.6307 14.0712 14.821 14.0099 15.093C14.0022 15.2152 13.9703 15.3347 13.9162 15.4446C13.862 15.5544 13.7867 15.6525 13.6944 15.7331C13.6022 15.8137 13.495 15.8752 13.3789 15.9142C13.2627 15.9531 13.1401 15.9687 13.0179 15.96C12.8835 15.9635 12.7499 15.9402 12.6245 15.8916C12.4992 15.8431 12.3848 15.7701 12.2879 15.677C12.1825 15.5649 12.1015 15.4323 12.0498 15.2874C11.9982 15.1425 11.9771 14.9885 11.9879 14.835C11.962 14.0533 12.2468 13.2933 12.7799 12.721C13.0864 12.3978 13.4092 12.0904 13.7469 11.8C14.1029 11.4887 14.3599 11.2553 14.5179 11.1C14.6753 10.9429 14.8099 10.7645 14.9179 10.57C15.0262 10.3767 15.0824 10.1586 15.0809 9.93701C15.0837 9.72436 15.0405 9.51363 14.9542 9.31926C14.8679 9.1249 14.7405 8.95151 14.5809 8.81101C14.2298 8.49801 13.7708 8.33377 13.3009 8.35301C13.0583 8.33301 12.8141 8.36327 12.5838 8.4419C12.3534 8.52053 12.1417 8.64585 11.9619 8.81001C11.6237 9.20736 11.3735 9.67191 11.2279 10.173C11.0392 10.8017 10.6806 11.116 10.1519 11.116C10.005 11.1188 9.85907 11.091 9.72354 11.0341C9.58802 10.9773 9.46586 10.8928 9.3649 10.786C9.26692 10.6944 9.18823 10.5841 9.13345 10.4617C9.07867 10.3393 9.0489 10.2071 9.0459 10.073ZM13.1149 19.211C12.7881 19.2155 12.4714 19.0978 12.2269 18.881C12.099 18.7655 11.9986 18.6228 11.933 18.4635C11.8674 18.3041 11.8384 18.1321 11.8479 17.96C11.8443 17.7952 11.8751 17.6315 11.9383 17.4793C12.0014 17.3271 12.0957 17.1898 12.2149 17.076C12.333 16.9587 12.4736 16.8664 12.6283 16.8047C12.7829 16.743 12.9484 16.7132 13.1149 16.717C13.2792 16.7142 13.4424 16.7444 13.5947 16.8059C13.7471 16.8673 13.8856 16.9588 14.0019 17.0749C14.1182 17.1909 14.21 17.3292 14.2719 17.4814C14.3337 17.6336 14.3643 17.7967 14.3619 17.961C14.3707 18.132 14.3416 18.3029 14.2768 18.4614C14.212 18.6199 14.113 18.7622 13.9869 18.878C13.7493 19.096 13.4374 19.2151 13.1149 19.211Z" fill="white"/>
<path d="M13.118 19.454C12.7325 19.4587 12.359 19.32 12.07 19.065C11.9155 18.9268 11.7937 18.7559 11.7136 18.5648C11.6335 18.3736 11.5971 18.167 11.607 17.96C11.6031 17.7628 11.6402 17.5669 11.716 17.3848C11.7917 17.2027 11.9044 17.0383 12.047 16.902C12.1878 16.7626 12.3551 16.6529 12.5391 16.5793C12.723 16.5058 12.9199 16.47 13.118 16.474C13.3138 16.4717 13.508 16.5086 13.6893 16.5824C13.8707 16.6563 14.0354 16.7657 14.1738 16.9041C14.3123 17.0426 14.4216 17.2073 14.4955 17.3886C14.5694 17.5699 14.6063 17.7642 14.604 17.96C14.613 18.1656 14.5768 18.3707 14.4978 18.5608C14.4188 18.7509 14.2991 18.9213 14.147 19.06C13.8657 19.316 13.4983 19.4567 13.118 19.454ZM13.118 16.961C12.9831 16.9574 12.8489 16.9812 12.7234 17.0308C12.598 17.0805 12.4839 17.155 12.388 17.25C12.292 17.3409 12.2162 17.451 12.1656 17.5732C12.1149 17.6953 12.0905 17.8268 12.094 17.959C12.0853 18.0965 12.1078 18.2341 12.1598 18.3617C12.2117 18.4893 12.2918 18.6036 12.394 18.696C12.5912 18.8722 12.8465 18.9697 13.111 18.9697C13.3755 18.9697 13.6307 18.8722 13.828 18.696C13.9284 18.6029 14.0068 18.4886 14.0577 18.3615C14.1085 18.2344 14.1305 18.0976 14.122 17.961C14.1246 17.8289 14.1005 17.6977 14.0511 17.5752C14.0018 17.4527 13.9282 17.3415 13.8348 17.2481C13.7415 17.1547 13.6302 17.0812 13.5077 17.0318C13.3852 16.9825 13.254 16.9584 13.122 16.961H13.118ZM13.026 16.202C12.8602 16.2058 12.6953 16.1768 12.5409 16.1165C12.3864 16.0563 12.2454 15.966 12.126 15.851C11.9972 15.7161 11.8977 15.556 11.8339 15.3808C11.77 15.2056 11.7432 15.0191 11.755 14.833C11.7292 13.99 12.0372 13.171 12.612 12.554C12.9242 12.2245 13.253 11.9111 13.597 11.615C13.946 11.31 14.197 11.076 14.357 10.921C14.4981 10.78 14.6189 10.6202 14.716 10.446C14.8046 10.2889 14.8501 10.1113 14.848 9.93096C14.8514 9.75229 14.8159 9.57502 14.7439 9.41147C14.6719 9.24793 14.5651 9.10204 14.431 8.98396C14.1251 8.71185 13.7249 8.57041 13.316 8.58996C13.1044 8.57054 12.8912 8.59479 12.6894 8.66118C12.4876 8.72758 12.3016 8.83472 12.143 8.97596C11.8294 9.3482 11.5977 9.78228 11.463 10.25C11.4116 10.5596 11.2521 10.841 11.0128 11.044C10.7734 11.2471 10.4698 11.3587 10.156 11.359C9.97655 11.3624 9.79835 11.3286 9.63262 11.2597C9.46688 11.1909 9.31719 11.0885 9.19298 10.959C9.07255 10.8451 8.97604 10.7083 8.90907 10.5567C8.84211 10.4051 8.80604 10.2417 8.80298 10.076C8.8171 9.45791 9.00644 8.85659 9.34898 8.34196C9.73936 7.73648 10.2799 7.24244 10.918 6.90796C11.6573 6.51973 12.4831 6.32566 13.318 6.34396C14.0909 6.32992 14.8571 6.49094 15.559 6.81496C16.1774 7.10025 16.7057 7.54994 17.086 8.11496C17.4424 8.64748 17.6322 9.27414 17.631 9.91496C17.6404 10.387 17.5314 10.8539 17.314 11.273C17.1225 11.6344 16.8774 11.9648 16.587 12.253C16.319 12.514 15.839 12.953 15.157 13.565C15.0049 13.7013 14.8603 13.8459 14.724 13.998C14.6385 14.0923 14.5643 14.1964 14.503 14.308C14.4568 14.3974 14.4197 14.4912 14.392 14.588C14.362 14.694 14.317 14.88 14.257 15.146C14.2309 15.4487 14.087 15.7292 13.8562 15.9269C13.6254 16.1246 13.3262 16.2237 13.023 16.203L13.026 16.202ZM13.318 8.10196C13.8491 8.08296 14.367 8.2704 14.763 8.62496C14.946 8.78803 15.0919 8.98845 15.191 9.21271C15.29 9.43696 15.3398 9.67983 15.337 9.92496C15.3384 10.1882 15.2716 10.4473 15.143 10.677C15.0238 10.8906 14.8757 11.0868 14.703 11.26C14.54 11.423 14.276 11.66 13.919 11.975C13.5881 12.2589 13.2717 12.5593 12.971 12.875C12.7275 13.1359 12.5379 13.4422 12.413 13.7765C12.2881 14.1107 12.2303 14.4663 12.243 14.823C12.2327 14.9432 12.247 15.0642 12.285 15.1787C12.323 15.2932 12.3839 15.3987 12.464 15.489C12.5383 15.5606 12.6262 15.6167 12.7226 15.6538C12.819 15.6909 12.9218 15.7083 13.025 15.705C13.1187 15.7133 13.2132 15.7024 13.3026 15.673C13.392 15.6435 13.4744 15.5961 13.5448 15.5336C13.6152 15.4712 13.6722 15.395 13.7121 15.3098C13.752 15.2245 13.7741 15.132 13.777 15.038C13.841 14.75 13.888 14.555 13.92 14.444C13.9563 14.3161 14.0052 14.1922 14.066 14.074C14.1452 13.9269 14.2419 13.7899 14.354 13.666C14.5033 13.4995 14.6615 13.3412 14.828 13.192C15.506 12.586 15.982 12.149 16.244 11.892C16.4993 11.6382 16.7148 11.3472 16.883 11.029C17.0614 10.681 17.1501 10.2939 17.141 9.90296C17.142 9.35691 16.9805 8.82291 16.677 8.36896C16.3422 7.8827 15.8809 7.49715 15.343 7.25396C14.7074 6.96233 14.0141 6.81807 13.315 6.83196C12.5647 6.81402 11.822 6.98601 11.156 7.33196C10.59 7.62542 10.1095 8.06013 9.76098 8.59396C9.46743 9.03152 9.30378 9.54326 9.28898 10.07C9.29238 10.1727 9.31644 10.2738 9.35974 10.3671C9.40303 10.4604 9.46467 10.544 9.54098 10.613C9.61941 10.6963 9.71455 10.7622 9.82018 10.8063C9.9258 10.8504 10.0395 10.8718 10.154 10.869C10.416 10.869 10.789 10.789 10.996 10.1C11.1527 9.56324 11.4216 9.06593 11.785 8.64096C11.9889 8.44933 12.2306 8.30247 12.4946 8.20981C12.7586 8.11716 13.0391 8.08076 13.318 8.10296V8.10196Z" fill="white"/>
</svg>
