<?xml version="1.0" encoding="UTF-8" standalone="no"?>
<!DOCTYPE svg PUBLIC "-//W3C//DTD SVG 1.1//EN" "http://www.w3.org/Graphics/SVG/1.1/DTD/svg11.dtd">
<svg width="100%" height="100%" viewBox="0 0 98 50" version="1.1" xmlns="http://www.w3.org/2000/svg" xmlns:xlink="http://www.w3.org/1999/xlink" xml:space="preserve" xmlns:serif="http://www.serif.com/" style="fill-rule:evenodd;clip-rule:evenodd;stroke-linejoin:round;stroke-miterlimit:2;">
    <g transform="matrix(-1,0,0,1,85,7)">
        <path d="M85,18c0,-9.934 -8.066,-18 -18,-18l-49,0c-9.934,0 -18,8.066 -18,18c0,9.934 8.066,18 18,18l49,0c9.934,0 18,-8.066 18,-18Z" style="fill:#d9d9d9;"/>
    </g>
    <g transform="matrix(-1,0,0,1,98,0)">
        <path d="M50,25c0,-13.798 -11.202,-25 -25,-25c-13.798,0 -25,11.202 -25,25c0,13.798 11.202,25 25,25c13.798,0 25,-11.202 25,-25Z" style="fill:#74cc38;"/>
    </g>
    <g id="Union.svg" transform="matrix(1,0,0,1,25.7444,25)">
        <g transform="matrix(1,0,0,1,-13,-6.5)">
            <clipPath id="_clip1">
                <rect x="0" y="0" width="26" height="13"/>
            </clipPath>
            <g clip-path="url(#_clip1)">
                <path d="M18.247,0l-3.573,0l0,12.133l3.049,0l0,-6.928l3.985,6.927l0.006,-0.003l0,0.004l1.237,0l0,0l3.049,0l0,-12.133l-3.049,0l0,8.186l-4.704,-8.178l0,-0.008Zm-5.18,6.5c0,3.59 -2.925,6.5 -6.533,6.5c-3.609,0 -6.534,-2.91 -6.534,-6.5c0,-3.59 2.925,-6.5 6.534,-6.5c3.608,0 6.533,2.91 6.533,6.5Zm-3.049,0c0,1.915 -1.56,3.467 -3.485,3.467c-1.924,-0 -3.484,-1.552 -3.484,-3.467c-0,-1.914 1.56,-3.467 3.484,-3.467c1.925,0 3.485,1.553 3.485,3.467Z" style="fill:#6d6d6d;"/>
                <path d="M14.674,0l0,-0.5l-0.5,0l0,0.5l0.5,0Zm0,12.133l-0.5,0l0,0.5l0.5,0l0,-0.5Zm3.049,0l0,0.5l0.5,0l0,-0.5l-0.5,0Zm0,-6.928l0.434,-0.249l-0.934,-1.623l0,1.872l0.5,0Zm3.985,6.927l-0.433,0.25l0.248,0.431l0.432,-0.246l-0.247,-0.434Zm0.006,-0.004l0.5,0l0,-0.86l-0.747,0.426l0.247,0.434Zm0,0.004l-0.5,0l0,0.5l0.5,0l0,-0.5Zm1.237,0l0.5,0l0,-0.5l-0.5,0l0,0.5Zm0,0l-0.5,0l0,0.5l0.5,0l0,-0.5Zm3.049,0l0,0.5l0.5,0l0,-0.5l-0.5,0Zm0,-12.133l0.5,0l0,-0.5l-0.5,0l0,0.5Zm-3.049,0l0,-0.5l-0.5,0l0,0.5l0.5,0Zm0,8.186l-0.433,0.25l0.933,1.623l0,-1.873l-0.5,0Zm-4.704,-8.178l-0.5,0l0,0.134l0.067,0.116l0.433,-0.25Zm0,-0.008l0.5,0l0,-0.5l-0.5,0l0,0.5Zm-3.573,0.5l0.002,0l-0,-1l-0.002,0l0,1Zm0.5,11.633l0,-12.133l-1,0l0,12.133l1,0Zm2.549,-0.5l-3.049,0l0,1l3.049,0l0,-1Zm-0.5,-6.428l0,6.928l1,0l0,-6.928l-1,0Zm4.918,6.678l-3.984,-6.927l-0.867,0.498l3.985,6.928l0.866,-0.499Zm-0.674,-0.188l-0.006,0.003l0.494,0.869l0.006,-0.003l-0.494,-0.869Zm0.747,0.438l0,-0.004l-1,0l0,0.004l1,0Zm0.737,-0.5l-1.237,0l0,1l1.237,0l0,-1Zm0.5,0.5l0,0l-1,0l0,0l1,0Zm2.549,-0.5l-3.049,0l0,1l3.049,0l0,-1Zm-0.5,-11.633l0,12.133l1,0l0,-12.133l-1,0Zm-2.549,0.5l3.049,0l0,-1l-3.049,0l0,1Zm0.5,7.686l0,-8.186l-1,0l0,8.186l1,0Zm-5.637,-7.928l4.704,8.178l0.866,-0.499l-4.703,-8.178l-0.867,0.499Zm-0.067,-0.258l0,0.008l1,0l0,-0.008l-1,0Zm-0.024,0.5l0.524,0l0,-1l-0.524,0l0,1Zm-3.047,0l3.047,0l0,-1l-3.047,0l-0,1Zm-8.142,13c3.882,0 7.033,-3.132 7.033,-7l-1,0c0,3.311 -2.699,6 -6.033,6l-0,1Zm-7.034,-7c0,3.868 3.151,7 7.034,7l-0,-1c-3.335,0 -6.034,-2.689 -6.034,-6l-1,0Zm7.034,-7c-3.883,0 -7.034,3.132 -7.034,7l1,0c0,-3.311 2.699,-6 6.034,-6l-0,-1Zm7.033,7c0,-3.868 -3.151,-7 -7.033,-7l-0,1c3.334,0 6.033,2.689 6.033,6l1,0Zm-7.034,3.967c2.199,-0 3.985,-1.774 3.985,-3.967l-1,0c-0,1.636 -1.334,2.967 -2.985,2.967l0,1Zm-3.984,-3.967c-0,2.193 1.786,3.967 3.984,3.967l0,-1c-1.65,-0 -2.984,-1.331 -2.984,-2.967l-1,0Zm3.984,-3.967c-2.198,0 -3.984,1.774 -3.984,3.967l1,0c-0,-1.636 1.334,-2.967 2.984,-2.967l0,-1Zm3.985,3.967c0,-2.193 -1.786,-3.967 -3.985,-3.967l0,1c1.651,0 2.985,1.331 2.985,2.967l1,0Z" style="fill:#d9d9d9;fill-rule:nonzero;"/>
            </g>
        </g>
    </g>
</svg>
