<svg width="98" height="50" viewBox="0 0 98 50" fill="none" xmlns="http://www.w3.org/2000/svg">
<rect x="13" y="7" width="85" height="36" rx="18" fill="#D9D9D9"/>
<rect width="50" height="50" rx="25" fill="#FF612A"/>
<mask id="path-3-inside-1_1208_3294" fill="white">
<path fill-rule="evenodd" clip-rule="evenodd" d="M61.5 32C65.0899 32 68 29.0899 68 25.5C68 21.9101 65.0899 19 61.5 19C57.9101 19 55 21.9101 55 25.5C55 29.0899 57.9101 32 61.5 32ZM61.5 28.9666C63.4146 28.9666 64.9667 27.4145 64.9667 25.4999C64.9667 23.5854 63.4146 22.0333 61.5 22.0333C59.5854 22.0333 58.0333 23.5854 58.0333 25.4999C58.0333 27.4145 59.5854 28.9666 61.5 28.9666ZM68.8667 19.8667H71.9H77.5333V22.9H71.9V24.2001H75.3667V27.2334H71.9V32H68.8667V27.2334V24.2001V22.9V19.8667ZM81.4333 19.8667H78.4V22.9V32H81.4333V27.2334H84.9V24.2001H81.4333V22.9H87.0667V19.8667H81.4333Z"/>
</mask>
<path fill-rule="evenodd" clip-rule="evenodd" d="M61.5 32C65.0899 32 68 29.0899 68 25.5C68 21.9101 65.0899 19 61.5 19C57.9101 19 55 21.9101 55 25.5C55 29.0899 57.9101 32 61.5 32ZM61.5 28.9666C63.4146 28.9666 64.9667 27.4145 64.9667 25.4999C64.9667 23.5854 63.4146 22.0333 61.5 22.0333C59.5854 22.0333 58.0333 23.5854 58.0333 25.4999C58.0333 27.4145 59.5854 28.9666 61.5 28.9666ZM68.8667 19.8667H71.9H77.5333V22.9H71.9V24.2001H75.3667V27.2334H71.9V32H68.8667V27.2334V24.2001V22.9V19.8667ZM81.4333 19.8667H78.4V22.9V32H81.4333V27.2334H84.9V24.2001H81.4333V22.9H87.0667V19.8667H81.4333Z" fill="#6D6D6D"/>
<path d="M68.8667 19.8667V19.3667H68.3667V19.8667H68.8667ZM77.5333 19.8667H78.0333V19.3667H77.5333V19.8667ZM77.5333 22.9V23.4H78.0333V22.9H77.5333ZM71.9 22.9V22.4H71.4V22.9H71.9ZM71.9 24.2001H71.4V24.7001H71.9V24.2001ZM75.3667 24.2001H75.8667V23.7001H75.3667V24.2001ZM75.3667 27.2334V27.7334H75.8667V27.2334H75.3667ZM71.9 27.2334V26.7334H71.4V27.2334H71.9ZM71.9 32V32.5H72.4V32H71.9ZM68.8667 32H68.3667V32.5H68.8667V32ZM78.4 19.8667V19.3667H77.9V19.8667H78.4ZM78.4 32H77.9V32.5H78.4V32ZM81.4333 32V32.5H81.9333V32H81.4333ZM81.4333 27.2334V26.7334H80.9333V27.2334H81.4333ZM84.9 27.2334V27.7334H85.4V27.2334H84.9ZM84.9 24.2001H85.4V23.7001H84.9V24.2001ZM81.4333 24.2001H80.9333V24.7001H81.4333V24.2001ZM81.4333 22.9V22.4H80.9333V22.9H81.4333ZM87.0667 22.9V23.4H87.5667V22.9H87.0667ZM87.0667 19.8667H87.5667V19.3667H87.0667V19.8667ZM67.5 25.5C67.5 28.8137 64.8137 31.5 61.5 31.5V32.5C65.366 32.5 68.5 29.366 68.5 25.5H67.5ZM61.5 19.5C64.8137 19.5 67.5 22.1863 67.5 25.5H68.5C68.5 21.634 65.366 18.5 61.5 18.5V19.5ZM55.5 25.5C55.5 22.1863 58.1863 19.5 61.5 19.5V18.5C57.634 18.5 54.5 21.634 54.5 25.5H55.5ZM61.5 31.5C58.1863 31.5 55.5 28.8137 55.5 25.5H54.5C54.5 29.366 57.634 32.5 61.5 32.5V31.5ZM64.4667 25.4999C64.4667 27.1384 63.1384 28.4666 61.5 28.4666V29.4666C63.6907 29.4666 65.4667 27.6907 65.4667 25.4999H64.4667ZM61.5 22.5333C63.1384 22.5333 64.4667 23.8615 64.4667 25.4999H65.4667C65.4667 23.3092 63.6907 21.5333 61.5 21.5333V22.5333ZM58.5333 25.4999C58.5333 23.8615 59.8616 22.5333 61.5 22.5333V21.5333C59.3093 21.5333 57.5333 23.3092 57.5333 25.4999H58.5333ZM61.5 28.4666C59.8616 28.4666 58.5333 27.1384 58.5333 25.4999H57.5333C57.5333 27.6907 59.3093 29.4666 61.5 29.4666V28.4666ZM71.9 19.3667H68.8667V20.3667H71.9V19.3667ZM77.5333 19.3667H71.9V20.3667H77.5333V19.3667ZM78.0333 22.9V19.8667H77.0333V22.9H78.0333ZM71.9 23.4H77.5333V22.4H71.9V23.4ZM72.4 24.2001V22.9H71.4V24.2001H72.4ZM75.3667 23.7001H71.9V24.7001H75.3667V23.7001ZM75.8667 27.2334V24.2001H74.8667V27.2334H75.8667ZM71.9 27.7334H75.3667V26.7334H71.9V27.7334ZM72.4 32V27.2334H71.4V32H72.4ZM68.8667 32.5H71.9V31.5H68.8667V32.5ZM68.3667 27.2334V32H69.3667V27.2334H68.3667ZM68.3667 24.2001V27.2334H69.3667V24.2001H68.3667ZM68.3667 22.9V24.2001H69.3667V22.9H68.3667ZM68.3667 19.8667V22.9H69.3667V19.8667H68.3667ZM78.4 20.3667H81.4333V19.3667H78.4V20.3667ZM78.9 22.9V19.8667H77.9V22.9H78.9ZM78.9 32V22.9H77.9V32H78.9ZM81.4333 31.5H78.4V32.5H81.4333V31.5ZM80.9333 27.2334V32H81.9333V27.2334H80.9333ZM84.9 26.7334H81.4333V27.7334H84.9V26.7334ZM84.4 24.2001V27.2334H85.4V24.2001H84.4ZM81.4333 24.7001H84.9V23.7001H81.4333V24.7001ZM80.9333 22.9V24.2001H81.9333V22.9H80.9333ZM87.0667 22.4H81.4333V23.4H87.0667V22.4ZM86.5667 19.8667V22.9H87.5667V19.8667H86.5667ZM81.4333 20.3667H87.0667V19.3667H81.4333V20.3667Z" fill="#D9D9D9" mask="url(#path-3-inside-1_1208_3294)"/>
</svg>
