<svg width="156" height="138" viewBox="0 0 156 138" fill="none" xmlns="http://www.w3.org/2000/svg">
<circle cx="69" cy="69" r="69" fill="#E2F5D6"/>
<circle cx="69.5" cy="69.5" r="56.5" fill="#CBECB5"/>
<circle cx="69" cy="69" r="43" fill="#B9E69B"/>
<path d="M13.5 25.5C10.7 32.7 4 38.8333 1 41C9.5 46.5 12.6667 53.6667 13.5 56.5C16.3 47.7 23.3333 42.5 26.5 41C20.5 38.2 15.3333 29.5 13.5 25.5Z" fill="#FEF8A6"/>
<path fill-rule="evenodd" clip-rule="evenodd" d="M12.5422 53.9829C15.2932 47.4871 20.5205 42.1418 23 41C18.5077 38.962 14.5569 31.691 12.5572 27.6119C9.48311 33.7244 3.98298 38.7918 1.20631 40.849C1.13549 40.9028 1.06669 40.9532 1 41C1.38748 41.2437 1.76211 41.4969 2.12428 41.7583C7.96869 45.8664 11.0547 50.7146 12.5422 53.9829Z" fill="#FCEE21"/>
<path d="M33.2581 17C31.6323 21.1806 27.7419 24.7419 26 26C30.9355 29.1935 32.7742 33.3548 33.2581 35C34.8839 29.8903 38.9677 26.871 40.8065 26C37.3226 24.3742 34.3226 19.3226 33.2581 17Z" fill="#FEF8A6"/>
<path fill-rule="evenodd" clip-rule="evenodd" d="M32.7019 33.5384C34.2993 29.7667 37.3345 26.663 38.7742 26C36.1658 24.8166 33.8718 20.5948 32.7107 18.2263C30.9257 21.7754 27.7321 24.7178 26.1198 25.9123C26.0787 25.9435 26.0387 25.9728 26 26C26.225 26.1415 26.4425 26.2885 26.6528 26.4403C30.0463 28.8256 31.8382 31.6407 32.7019 33.5384Z" fill="#FCEE21"/>
<path d="M26.2823 49C24.9274 52.4839 21.6855 55.4516 20.2339 56.5C24.3468 59.1613 25.879 62.629 26.2823 64C27.6371 59.7419 31.0403 57.2258 32.5726 56.5C29.6694 55.1452 27.1694 50.9355 26.2823 49Z" fill="#FEF8A6"/>
<path fill-rule="evenodd" clip-rule="evenodd" d="M25.8188 62.782C27.1499 59.6389 29.6793 57.0525 30.879 56.5C28.7054 55.5139 26.7937 51.9956 25.8261 50.0219C24.3385 52.9798 21.6768 55.432 20.3333 56.4272C20.2993 56.453 20.2663 56.4772 20.2342 56.4997C20.2341 56.4998 20.234 56.4999 20.2339 56.5C20.4215 56.618 20.6029 56.7406 20.7783 56.8672C23.606 58.8549 25.0991 61.2007 25.8188 62.782Z" fill="#FCEE21"/>
<path d="M66.4999 129.5C73.6999 128.7 78.8333 116.5 80.4999 110.5C80.4999 96 62.4999 83.5 52.4999 85C42.4999 86.5 32.4999 100.5 32.9999 105.5C33.4999 110.5 38.4999 124.5 40.4999 127C42.4999 129.5 57.4999 130.5 66.4999 129.5Z" fill="#F6CEAD"/>
<rect x="45" y="35" width="48" height="77" rx="3" fill="#494848"/>
<rect x="50" y="43" width="38" height="59" rx="2" fill="white"/>
<circle cx="69" cy="107" r="3" fill="white"/>
<circle cx="70.5" cy="72.5" r="13.5" fill="url(#paint0_linear_1188_797)"/>
<circle cx="67.5" cy="70.5" r="12.5" stroke="#494848" stroke-width="2"/>
<path d="M31 98C31.4 105.6 36.1666 117.833 38.5 123C39.1667 120.833 41.5 115 45.5 109C50.5 101.5 52 88.5 51 83C50 77.5 47 72 46.5 70.5C46 69 46.5 65 46.5 63.5C46.5 62 43.5 51 37.5 50C31.5 49 34.5 55 35.5 58.5C36.5 62 36 65 35.5 67.5C35 70 35.5 72.5 34.5 76C33.5 79.5 30.5 88.5 31 98Z" fill="#F6CEAD"/>
<path d="M84 59C85.2 62.6 90.5 62.8333 93 62.5C100.2 61.3 101 57 100.5 55C98.5 50 92 50 90 51C88 52 82.5 54.5 84 59Z" fill="#F6CEAD"/>
<path d="M83 72.5C83.4 75.3 86.8333 76.6667 88.5 77C83.5 80 83.5 83 83.5 84C83.5 85 86 89.5 92.5 87.5C99 85.5 100 81 99 79C98.2 77.4 96.3333 76.3333 95.5 76C100.5 73 100.5 70 99.5 68C98.5 66 94 64.5 90.5 65.5C87 66.5 82.5 69 83 72.5Z" fill="#F6CEAD"/>
<path fill-rule="evenodd" clip-rule="evenodd" d="M117.955 37.3638C118.156 36.5601 117.667 35.7457 116.864 35.5448C116.06 35.3439 115.246 35.8325 115.045 36.6362C113.764 41.7576 110.199 45.6516 106.101 48.4632C102.017 51.2658 97.5402 52.8948 94.7025 53.5295C94.0166 53.6675 93.5 54.2734 93.5 55C93.5 55.7415 94.0381 56.3574 94.7451 56.4784C102.667 57.9964 107.769 63.1074 109.252 65.332C109.711 66.0213 110.643 66.2076 111.332 65.7481C112.021 65.2885 112.208 64.3572 111.748 63.6679C110.266 61.4449 106.273 57.3531 100.18 54.9479C102.592 54.0013 105.261 52.6778 107.799 50.9368C112.251 47.8817 116.436 43.4424 117.955 37.3638Z" fill="#8557A7"/>
<path fill-rule="evenodd" clip-rule="evenodd" d="M107 74C106.448 74 106 74.4477 106 75V79.1842L99.5 78.5L106 85V95C106 95.5523 106.448 96 107 96H137C137.552 96 138 95.5523 138 95V75C138 74.4477 137.552 74 137 74H107Z" fill="#8557A7"/>
<path d="M112 90L116.112 80H117.919L122.032 90H119.739L118.978 87.9716H115.053L114.293 90H112ZM116.997 82.7234L115.801 85.9716H118.218L117.022 82.7234H116.997ZM122.564 90V80H126.202C127.723 80 128.902 80.435 129.741 81.305C130.58 82.1749 131 83.4043 131 84.9929C131 86.5816 130.58 87.8156 129.741 88.695C128.902 89.565 127.723 90 126.202 90H122.564ZM124.856 87.8865H126.053C126.925 87.8865 127.569 87.6501 127.984 87.1773C128.408 86.695 128.62 85.9669 128.62 84.9929C128.62 84.0189 128.408 83.2955 127.984 82.8227C127.561 82.3499 126.917 82.1135 126.053 82.1135H124.856V87.8865Z" fill="white"/>
<path fill-rule="evenodd" clip-rule="evenodd" d="M137.77 68.1773C137.379 67.7868 136.746 67.7868 136.356 68.1773L121.593 82.9404L106.829 68.1773C106.439 67.7868 105.806 67.7868 105.415 68.1773L104.177 69.4151C103.787 69.8057 103.787 70.4388 104.177 70.8294L118.94 85.5925L104.177 100.356C103.787 100.746 103.787 101.379 104.177 101.77L105.415 103.008C105.806 103.398 106.439 103.398 106.829 103.008L121.593 88.2445L136.356 103.008C136.746 103.398 137.379 103.398 137.77 103.008L139.008 101.77C139.398 101.379 139.398 100.746 139.008 100.356L124.245 85.5925L139.008 70.8294C139.398 70.4388 139.398 69.8057 139.008 69.4152L137.77 68.1773Z" fill="#E33131" fill-opacity="0.5"/>
<path d="M61 71L65 75L74 66" stroke="#494848" stroke-width="2" stroke-linecap="round"/>
<defs>
<linearGradient id="paint0_linear_1188_797" x1="57" y1="73" x2="83" y2="73" gradientUnits="userSpaceOnUse">
<stop stop-color="#70CB33"/>
<stop offset="1" stop-color="#AEE18B"/>
</linearGradient>
</defs>
</svg>
