<svg width="28" height="21" viewBox="0 0 28 21" fill="none" xmlns="http://www.w3.org/2000/svg">
<path d="M22 0H6C2.68629 0 0 2.68629 0 6V15C0 18.3137 2.68629 21 6 21H22C25.3137 21 28 18.3137 28 15V6C28 2.68629 25.3137 0 22 0Z" fill="white"/>
<path d="M22 0.5H6C2.96243 0.5 0.5 2.96243 0.5 6V15C0.5 18.0376 2.96243 20.5 6 20.5H22C25.0376 20.5 27.5 18.0376 27.5 15V6C27.5 2.96243 25.0376 0.5 22 0.5Z" stroke="#494848"/>
<path d="M16.9462 10.5005L11.833 7.3047V13.6962L16.9462 10.5005ZM18.1235 10.5005C18.1235 10.7613 17.9982 11.0222 17.7475 11.1789L12.057 14.7355C11.5241 15.0685 10.833 14.6854 10.833 14.0571V6.94386C10.833 6.31551 11.5241 5.93244 12.057 6.26546L17.7475 9.82206C17.9982 9.97872 18.1235 10.2396 18.1235 10.5005Z" fill="#494848"/>
</svg>
